<svg width="24" height="24" viewBox="0 0 24 24" fill="none" xmlns="http://www.w3.org/2000/svg">
<g opacity="0.7">
<path d="M20.798 16.4944C20.2776 15.5981 19.504 13.0622 19.504 9.75C19.504 7.76088 18.7137 5.85322 17.3069 4.4467C15.9 3.04018 13.992 2.25 12.0025 2.25C10.0129 2.25 8.10489 3.04018 6.69808 4.4467C5.29127 5.85322 4.50093 7.76088 4.50093 9.75C4.50093 13.0631 3.7264 15.5981 3.20598 16.4944C3.07308 16.7222 3.00262 16.9811 3.00172 17.2449C3.00081 17.5086 3.06949 17.768 3.20082 17.9967C3.33215 18.2255 3.52149 18.4156 3.74975 18.5478C3.97801 18.6801 4.23711 18.7498 4.50093 18.75H8.32765C8.50072 19.5967 8.96099 20.3577 9.63061 20.9042C10.3002 21.4507 11.1381 21.7492 12.0025 21.7492C12.8669 21.7492 13.7047 21.4507 14.3743 20.9042C15.0439 20.3577 15.5042 19.5967 15.6773 18.75H19.504C19.7677 18.7496 20.0267 18.6798 20.2549 18.5475C20.483 18.4151 20.6722 18.225 20.8034 17.9963C20.9346 17.7676 21.0032 17.5083 21.0023 17.2446C21.0013 16.9809 20.9309 16.7222 20.798 16.4944ZM12.0025 20.25C11.5372 20.2499 11.0834 20.1055 10.7036 19.8369C10.3237 19.5683 10.0365 19.1886 9.88141 18.75H14.1235C13.9684 19.1886 13.6812 19.5683 13.3014 19.8369C12.9215 20.1055 12.4677 20.2499 12.0025 20.25ZM4.50093 17.25C5.22295 16.0088 6.00124 13.1325 6.00124 9.75C6.00124 8.1587 6.63351 6.63258 7.75896 5.50736C8.88441 4.38214 10.4108 3.75 12.0025 3.75C13.5941 3.75 15.1205 4.38214 16.246 5.50736C17.3714 6.63258 18.0037 8.1587 18.0037 9.75C18.0037 13.1297 18.7801 16.0059 19.504 17.25H4.50093Z" fill="#343330"/>
</g>
<ellipse cx="18.0885" cy="4.05859" rx="3.00062" ry="3" fill="#F15845"/>
</svg>
