<svg width="10" height="10" viewBox="0 0 10 10" fill="none" xmlns="http://www.w3.org/2000/svg">
<path d="M9.76563 2.46841L7.53122 0.234382C7.45693 0.160075 7.36873 0.10113 7.27166 0.0609146C7.1746 0.0206989 7.07056 0 6.96549 0C6.86042 0 6.75638 0.0206989 6.65931 0.0609146C6.56224 0.10113 6.47405 0.160075 6.39976 0.234382L0.234495 6.39996C0.159888 6.47398 0.100737 6.56209 0.0604813 6.65917C0.0202257 6.75625 -0.000331707 6.86037 4.04732e-06 6.96546V9.19999C4.04732e-06 9.41217 0.0842863 9.61565 0.23431 9.76568C0.384333 9.91571 0.587808 10 0.799973 10H9.19965C9.30573 10 9.40747 9.95786 9.48248 9.88284C9.5575 9.80783 9.59964 9.70608 9.59964 9.6C9.59964 9.49391 9.5575 9.39216 9.48248 9.31715C9.40747 9.24213 9.30573 9.19999 9.19965 9.19999H4.16584L9.76563 3.59992C9.83993 3.52563 9.89888 3.43743 9.93909 3.34036C9.9793 3.24328 10 3.13924 10 3.03417C10 2.92909 9.9793 2.82505 9.93909 2.72797C9.89888 2.6309 9.83993 2.5427 9.76563 2.46841ZM3.03439 9.19999H0.799973V6.96546L5.19981 2.56541L7.43422 4.79994L3.03439 9.19999ZM7.9997 4.23443L5.76578 1.9999L6.96574 0.799889L9.19965 3.03442L7.9997 4.23443Z" fill="#5314A3"/>
</svg>
