<svg width="13" height="16" viewBox="0 0 13 16" fill="none" xmlns="http://www.w3.org/2000/svg">
<path d="M6.1875 3.375C5.63124 3.375 5.08747 3.53995 4.62496 3.84899C4.16245 4.15803 3.80196 4.59729 3.58909 5.1112C3.37622 5.62512 3.32052 6.19062 3.42904 6.73619C3.53756 7.28176 3.80543 7.7829 4.19876 8.17624C4.5921 8.56957 5.09324 8.83744 5.63881 8.94596C6.18438 9.05448 6.74988 8.99878 7.2638 8.78591C7.77771 8.57304 8.21697 8.21255 8.52601 7.75004C8.83505 7.28753 9 6.74376 9 6.1875C9 5.44158 8.70368 4.72621 8.17624 4.19876C7.64879 3.67132 6.93342 3.375 6.1875 3.375ZM6.1875 7.875C5.85374 7.875 5.52748 7.77603 5.24998 7.5906C4.97247 7.40518 4.75618 7.14163 4.62845 6.83328C4.50073 6.52493 4.46731 6.18563 4.53242 5.85828C4.59754 5.53094 4.75826 5.23026 4.99426 4.99426C5.23026 4.75826 5.53094 4.59754 5.85828 4.53242C6.18563 4.46731 6.52493 4.50073 6.83328 4.62845C7.14163 4.75618 7.40518 4.97247 7.59061 5.24998C7.77603 5.52748 7.875 5.85374 7.875 6.1875C7.875 6.63505 7.69721 7.06428 7.38074 7.38074C7.06428 7.69721 6.63505 7.875 6.1875 7.875ZM6.1875 0C4.54704 0.00186098 2.97431 0.654354 1.81433 1.81433C0.654354 2.97431 0.00186098 4.54704 0 6.1875C0 8.39531 1.02023 10.7353 2.95312 12.9551C3.82164 13.9581 4.79915 14.8614 5.86758 15.648C5.96216 15.7143 6.07484 15.7498 6.19031 15.7498C6.30579 15.7498 6.41847 15.7143 6.51305 15.648C7.57951 14.861 8.55512 13.9578 9.42188 12.9551C11.352 10.7353 12.375 8.39531 12.375 6.1875C12.3731 4.54704 11.7206 2.97431 10.5607 1.81433C9.40069 0.654354 7.82796 0.00186098 6.1875 0ZM6.1875 14.4844C5.02523 13.5703 1.125 10.2129 1.125 6.1875C1.125 4.84484 1.65837 3.55717 2.60777 2.60777C3.55717 1.65837 4.84484 1.125 6.1875 1.125C7.53016 1.125 8.81782 1.65837 9.76723 2.60777C10.7166 3.55717 11.25 4.84484 11.25 6.1875C11.25 10.2115 7.34977 13.5703 6.1875 14.4844Z" fill="#444444" fill-opacity="0.65"/>
</svg>
