<svg width="15" height="12" viewBox="0 0 15 12" fill="none" xmlns="http://www.w3.org/2000/svg">
<path d="M14.0625 0H0.5625C0.413316 0 0.270242 0.0592633 0.164752 0.164753C0.0592632 0.270242 0 0.413316 0 0.5625V10.125C0 10.4234 0.118526 10.7095 0.329505 10.9205C0.540483 11.1315 0.826631 11.25 1.125 11.25H13.5C13.7984 11.25 14.0845 11.1315 14.2955 10.9205C14.5065 10.7095 14.625 10.4234 14.625 10.125V0.5625C14.625 0.413316 14.5657 0.270242 14.4602 0.164753C14.3548 0.0592633 14.2117 0 14.0625 0ZM12.6162 1.125L7.3125 5.98711L2.00883 1.125H12.6162ZM13.5 10.125H1.125V1.84148L6.93211 7.16484C7.03588 7.26011 7.17163 7.31297 7.3125 7.31297C7.45337 7.31297 7.58912 7.26011 7.69289 7.16484L13.5 1.84148V10.125Z" fill="#444444" fill-opacity="0.65"/>
</svg>
