<svg width="15" height="15" viewBox="0 0 15 15" fill="none" xmlns="http://www.w3.org/2000/svg">
<path d="M13.3854 9.45408L10.073 7.96978L10.0638 7.96556C9.89187 7.89201 9.70429 7.8625 9.51805 7.87968C9.33181 7.89687 9.15279 7.96022 8.99719 8.064C8.97887 8.0761 8.96127 8.08925 8.94446 8.10337L7.23305 9.56236C6.14883 9.03572 5.02946 7.92478 4.50282 6.85462L5.96391 5.1172C5.97798 5.09962 5.99133 5.08205 6.00399 5.06306C6.10554 4.90788 6.16716 4.73001 6.18335 4.54526C6.19954 4.36052 6.16981 4.17463 6.0968 4.00415V3.99572L4.60829 0.67767C4.51178 0.454966 4.34583 0.269446 4.13522 0.148807C3.9246 0.0281669 3.68062 -0.0211229 3.43969 0.00829522C2.48694 0.133667 1.6124 0.60157 0.979413 1.32461C0.346427 2.04765 -0.00171628 2.97639 6.36233e-06 3.93736C6.36233e-06 9.52017 4.54219 14.0624 10.125 14.0624C11.086 14.0641 12.0147 13.7159 12.7378 13.083C13.4608 12.45 13.9287 11.5754 14.0541 10.6227C14.0835 10.3818 14.0344 10.1379 13.9138 9.9273C13.7933 9.7167 13.608 9.5507 13.3854 9.45408ZM10.125 12.9374C7.73886 12.9348 5.45119 11.9857 3.76392 10.2984C2.07666 8.61118 1.12761 6.32351 1.12501 3.93736C1.12236 3.25075 1.36973 2.58665 1.82091 2.06909C2.2721 1.55153 2.89625 1.21589 3.5768 1.12486C3.57653 1.12766 3.57653 1.13049 3.5768 1.1333L5.05337 4.43798L3.60001 6.17751C3.58525 6.19449 3.57185 6.21259 3.55993 6.23166C3.45412 6.39402 3.39205 6.58096 3.37973 6.77437C3.36741 6.96778 3.40526 7.16109 3.48962 7.33556C4.12665 8.63845 5.43938 9.94134 6.75633 10.5777C6.93209 10.6612 7.12652 10.6978 7.32062 10.6837C7.51473 10.6697 7.70187 10.6055 7.86376 10.4975C7.88181 10.4854 7.89918 10.4722 7.91579 10.4581L9.62508 8.99986L12.9298 10.4799C12.9298 10.4799 12.9354 10.4799 12.9375 10.4799C12.8476 11.1615 12.5124 11.7869 11.9948 12.2392C11.4771 12.6915 10.8124 12.9397 10.125 12.9374Z" fill="#444444" fill-opacity="0.65"/>
</svg>
