<svg width="14" height="17" viewBox="0 0 14 17" fill="none" xmlns="http://www.w3.org/2000/svg">
<path d="M2.74922 13.625C2.8149 13.6744 2.88968 13.7103 2.96926 13.7307C3.04885 13.7512 3.13169 13.7557 3.21303 13.7441C3.29437 13.7325 3.37263 13.705 3.44332 13.6631C3.51401 13.6212 3.57575 13.5658 3.625 13.5C4.00341 12.9955 4.49409 12.5859 5.0582 12.3039C5.6223 12.0218 6.24432 11.875 6.875 11.875C7.50568 11.875 8.12771 12.0218 8.69181 12.3039C9.25591 12.5859 9.74659 12.9955 10.125 13.5C10.1742 13.5657 10.2359 13.621 10.3066 13.6628C10.3772 13.7046 10.4554 13.7321 10.5366 13.7437C10.6179 13.7553 10.7006 13.7508 10.7801 13.7304C10.8596 13.7101 10.9343 13.6742 11 13.625C11.0657 13.5758 11.121 13.5141 11.1628 13.4434C11.2046 13.3728 11.2321 13.2946 11.2437 13.2134C11.2553 13.1321 11.2508 13.0494 11.2304 12.9699C11.2101 12.8904 11.1742 12.8157 11.125 12.75C10.5716 12.008 9.83358 11.4238 8.98438 11.0555C9.44976 10.6306 9.77581 10.0749 9.91974 9.4614C10.0637 8.84789 10.0188 8.2052 9.7909 7.61767C9.56303 7.03014 9.16287 6.52523 8.64291 6.1692C8.12296 5.81316 7.50751 5.62265 6.87734 5.62265C6.24718 5.62265 5.63173 5.81316 5.11178 6.1692C4.59182 6.52523 4.19166 7.03014 3.96379 7.61767C3.73593 8.2052 3.69102 8.84789 3.83495 9.4614C3.97888 10.0749 4.30493 10.6306 4.77031 11.0555C3.9194 11.4231 3.17972 12.0074 2.625 12.75C2.52546 12.8825 2.48263 13.0491 2.50592 13.2132C2.52922 13.3773 2.61673 13.5254 2.74922 13.625ZM6.875 6.875C7.24584 6.875 7.60835 6.98497 7.91669 7.19099C8.22504 7.39702 8.46536 7.68986 8.60727 8.03247C8.74919 8.37508 8.78632 8.75208 8.71397 9.1158C8.64163 9.47951 8.46305 9.8136 8.20083 10.0758C7.9386 10.338 7.60451 10.5166 7.2408 10.589C6.87708 10.6613 6.50008 10.6242 6.15747 10.4823C5.81486 10.3404 5.52202 10.1 5.31599 9.79169C5.10997 9.48335 5 9.12084 5 8.75C5 8.25272 5.19754 7.77581 5.54917 7.42417C5.90081 7.07254 6.37772 6.875 6.875 6.875ZM12.5 0H1.25C0.918479 0 0.600537 0.131696 0.366116 0.366116C0.131696 0.600537 0 0.918479 0 1.25V15C0 15.3315 0.131696 15.6495 0.366116 15.8839C0.600537 16.1183 0.918479 16.25 1.25 16.25H12.5C12.8315 16.25 13.1495 16.1183 13.3839 15.8839C13.6183 15.6495 13.75 15.3315 13.75 15V1.25C13.75 0.918479 13.6183 0.600537 13.3839 0.366116C13.1495 0.131696 12.8315 0 12.5 0ZM12.5 15H1.25V1.25H12.5V15ZM3.75 3.125C3.75 2.95924 3.81585 2.80027 3.93306 2.68306C4.05027 2.56585 4.20924 2.5 4.375 2.5H9.375C9.54076 2.5 9.69973 2.56585 9.81694 2.68306C9.93415 2.80027 10 2.95924 10 3.125C10 3.29076 9.93415 3.44973 9.81694 3.56694C9.69973 3.68415 9.54076 3.75 9.375 3.75H4.375C4.20924 3.75 4.05027 3.68415 3.93306 3.56694C3.81585 3.44973 3.75 3.29076 3.75 3.125Z" fill="#6366F1"/>
</svg>
